<svg width="507" height="171" viewBox="0 0 507 171" fill="none" xmlns="http://www.w3.org/2000/svg">
<g filter="url(#filter0_bdd_21_20)">
<rect x="4" width="483" height="151" rx="50" fill="white" fill-opacity="0.5" shape-rendering="crispEdges"/>
</g>
<rect x="87" y="60" width="30" height="30" rx="6" stroke="#545454" stroke-width="2"/>
<path d="M163.316 89L156.842 77.885H152.552V89H149.003V61.817H157.778C159.832 61.817 161.561 62.168 162.965 62.87C164.395 63.572 165.461 64.521 166.163 65.717C166.865 66.913 167.216 68.278 167.216 69.812C167.216 71.684 166.67 73.335 165.578 74.765C164.512 76.195 162.9 77.144 160.742 77.612L167.567 89H163.316ZM152.552 75.038H157.778C159.702 75.038 161.145 74.57 162.107 73.634C163.069 72.672 163.55 71.398 163.55 69.812C163.55 68.2 163.069 66.952 162.107 66.068C161.171 65.184 159.728 64.742 157.778 64.742H152.552V75.038ZM191.685 67.628V89H188.136V85.841C187.46 86.933 186.511 87.791 185.289 88.415C184.093 89.013 182.767 89.312 181.311 89.312C179.647 89.312 178.152 88.974 176.826 88.298C175.5 87.596 174.447 86.556 173.667 85.178C172.913 83.8 172.536 82.123 172.536 80.147V67.628H176.046V79.679C176.046 81.785 176.579 83.41 177.645 84.554C178.711 85.672 180.167 86.231 182.013 86.231C183.911 86.231 185.406 85.646 186.498 84.476C187.59 83.306 188.136 81.603 188.136 79.367V67.628H191.685ZM208.09 67.238C210.69 67.238 212.796 68.031 214.408 69.617C216.02 71.177 216.826 73.439 216.826 76.403V89H213.316V76.91C213.316 74.778 212.783 73.153 211.717 72.035C210.651 70.891 209.195 70.319 207.349 70.319C205.477 70.319 203.982 70.904 202.864 72.074C201.772 73.244 201.226 74.947 201.226 77.183V89H197.677V67.628H201.226V70.67C201.928 69.578 202.877 68.733 204.073 68.135C205.295 67.537 206.634 67.238 208.09 67.238ZM232.007 86.153C235.309 83.501 237.896 81.33 239.768 79.64C241.64 77.924 243.213 76.143 244.487 74.297C245.787 72.425 246.437 70.592 246.437 68.798C246.437 67.108 246.021 65.782 245.189 64.82C244.383 63.832 243.07 63.338 241.25 63.338C239.482 63.338 238.104 63.897 237.116 65.015C236.154 66.107 235.634 67.576 235.556 69.422H232.124C232.228 66.51 233.112 64.261 234.776 62.675C236.44 61.089 238.585 60.296 241.211 60.296C243.889 60.296 246.008 61.037 247.568 62.519C249.154 64.001 249.947 66.042 249.947 68.642C249.947 70.8 249.297 72.906 247.997 74.96C246.723 76.988 245.267 78.782 243.629 80.342C241.991 81.876 239.898 83.67 237.35 85.724H250.766V88.688H232.007V86.153ZM253.932 64.04V60.803H261.264V89H257.676V64.04H253.932ZM282.687 89L271.494 76.598V89H267.945V61.817H271.494V74.414L282.726 61.817H287.211L274.887 75.428L287.328 89H282.687ZM318.421 61.817V64.703H311.011V89H307.462V64.703H300.013V61.817H318.421ZM332.11 89.351C330.108 89.351 328.288 88.896 326.65 87.986C325.038 87.076 323.764 85.789 322.828 84.125C321.918 82.435 321.463 80.485 321.463 78.275C321.463 76.091 321.931 74.167 322.867 72.503C323.829 70.813 325.129 69.526 326.767 68.642C328.405 67.732 330.238 67.277 332.266 67.277C334.294 67.277 336.127 67.732 337.765 68.642C339.403 69.526 340.69 70.8 341.626 72.464C342.588 74.128 343.069 76.065 343.069 78.275C343.069 80.485 342.575 82.435 341.587 84.125C340.625 85.789 339.312 87.076 337.648 87.986C335.984 88.896 334.138 89.351 332.11 89.351ZM332.11 86.231C333.384 86.231 334.58 85.932 335.698 85.334C336.816 84.736 337.713 83.839 338.389 82.643C339.091 81.447 339.442 79.991 339.442 78.275C339.442 76.559 339.104 75.103 338.428 73.907C337.752 72.711 336.868 71.827 335.776 71.255C334.684 70.657 333.501 70.358 332.227 70.358C330.927 70.358 329.731 70.657 328.639 71.255C327.573 71.827 326.715 72.711 326.065 73.907C325.415 75.103 325.09 76.559 325.09 78.275C325.09 80.017 325.402 81.486 326.026 82.682C326.676 83.878 327.534 84.775 328.6 85.373C329.666 85.945 330.836 86.231 332.11 86.231ZM346.409 78.236C346.409 76.052 346.851 74.141 347.735 72.503C348.619 70.839 349.828 69.552 351.362 68.642C352.922 67.732 354.664 67.277 356.588 67.277C358.252 67.277 359.799 67.667 361.229 68.447C362.659 69.201 363.751 70.202 364.505 71.45V60.14H368.093V89H364.505V84.983C363.803 86.257 362.763 87.31 361.385 88.142C360.007 88.948 358.395 89.351 356.549 89.351C354.651 89.351 352.922 88.883 351.362 87.947C349.828 87.011 348.619 85.698 347.735 84.008C346.851 82.318 346.409 80.394 346.409 78.236ZM364.505 78.275C364.505 76.663 364.18 75.259 363.53 74.063C362.88 72.867 361.996 71.957 360.878 71.333C359.786 70.683 358.577 70.358 357.251 70.358C355.925 70.358 354.716 70.67 353.624 71.294C352.532 71.918 351.661 72.828 351.011 74.024C350.361 75.22 350.036 76.624 350.036 78.236C350.036 79.874 350.361 81.304 351.011 82.526C351.661 83.722 352.532 84.645 353.624 85.295C354.716 85.919 355.925 86.231 357.251 86.231C358.577 86.231 359.786 85.919 360.878 85.295C361.996 84.645 362.88 83.722 363.53 82.526C364.18 81.304 364.505 79.887 364.505 78.275ZM372.765 78.236C372.765 76.052 373.207 74.141 374.091 72.503C374.975 70.839 376.184 69.552 377.718 68.642C379.278 67.732 381.007 67.277 382.905 67.277C384.777 67.277 386.402 67.68 387.78 68.486C389.158 69.292 390.185 70.306 390.861 71.528V67.628H394.449V89H390.861V85.022C390.159 86.27 389.106 87.31 387.702 88.142C386.324 88.948 384.712 89.351 382.866 89.351C380.968 89.351 379.252 88.883 377.718 87.947C376.184 87.011 374.975 85.698 374.091 84.008C373.207 82.318 372.765 80.394 372.765 78.236ZM390.861 78.275C390.861 76.663 390.536 75.259 389.886 74.063C389.236 72.867 388.352 71.957 387.234 71.333C386.142 70.683 384.933 70.358 383.607 70.358C382.281 70.358 381.072 70.67 379.98 71.294C378.888 71.918 378.017 72.828 377.367 74.024C376.717 75.22 376.392 76.624 376.392 78.236C376.392 79.874 376.717 81.304 377.367 82.526C378.017 83.722 378.888 84.645 379.98 85.295C381.072 85.919 382.281 86.231 383.607 86.231C384.933 86.231 386.142 85.919 387.234 85.295C388.352 84.645 389.236 83.722 389.886 82.526C390.536 81.304 390.861 79.887 390.861 78.275ZM418.854 67.628L405.984 99.062H402.318L406.53 88.766L397.911 67.628H401.85L408.558 84.944L415.188 67.628H418.854Z" fill="#3B3B3B"/>
<g clip-path="url(#clip0_21_20)">
<path d="M102.138 77.1569L84.3685 56.021L81.6045 59.5967L102.138 84.3229L146.138 31.3383L142.874 27.6467L102.138 77.1569Z" fill="#0EB200"/>
</g>
<defs>
<filter id="filter0_bdd_21_20" x="-26" y="-30" width="543" height="211" filterUnits="userSpaceOnUse" color-interpolation-filters="sRGB">
<feFlood flood-opacity="0" result="BackgroundImageFix"/>
<feGaussianBlur in="BackgroundImageFix" stdDeviation="15"/>
<feComposite in2="SourceAlpha" operator="in" result="effect1_backgroundBlur_21_20"/>
<feColorMatrix in="SourceAlpha" type="matrix" values="0 0 0 0 0 0 0 0 0 0 0 0 0 0 0 0 0 0 127 0" result="hardAlpha"/>
<feOffset dx="10" dy="10"/>
<feGaussianBlur stdDeviation="5"/>
<feComposite in2="hardAlpha" operator="out"/>
<feColorMatrix type="matrix" values="0 0 0 0 0.880512 0 0 0 0 0.880512 0 0 0 0 0.880512 0 0 0 0.25 0"/>
<feBlend mode="normal" in2="effect1_backgroundBlur_21_20" result="effect2_dropShadow_21_20"/>
<feColorMatrix in="SourceAlpha" type="matrix" values="0 0 0 0 0 0 0 0 0 0 0 0 0 0 0 0 0 0 127 0" result="hardAlpha"/>
<feOffset dy="4"/>
<feGaussianBlur stdDeviation="2"/>
<feComposite in2="hardAlpha" operator="out"/>
<feColorMatrix type="matrix" values="0 0 0 0 0 0 0 0 0 0 0 0 0 0 0 0 0 0 0.25 0"/>
<feBlend mode="normal" in2="effect2_dropShadow_21_20" result="effect3_dropShadow_21_20"/>
<feBlend mode="normal" in="SourceGraphic" in2="effect3_dropShadow_21_20" result="shape"/>
</filter>
<clipPath id="clip0_21_20">
<rect width="88" height="56" fill="white" transform="translate(70 28)"/>
</clipPath>
</defs>
</svg>
