<svg width="677" height="171" viewBox="0 0 677 171" fill="none" xmlns="http://www.w3.org/2000/svg">
<g filter="url(#filter0_bdd_21_20)">
<rect x="4" width="653" height="151" rx="50" fill="white" fill-opacity="0.5" shape-rendering="crispEdges"/>
</g>
<rect x="87" y="60" width="30" height="30" rx="6" stroke="#545454" stroke-width="2"/>
<path d="M163.745 89L152.552 76.598V89H149.003V61.817H152.552V74.414L163.784 61.817H168.269L155.945 75.428L168.386 89H163.745ZM174.183 64.157C173.507 64.157 172.935 63.923 172.467 63.455C171.999 62.987 171.765 62.415 171.765 61.739C171.765 61.063 171.999 60.491 172.467 60.023C172.935 59.555 173.507 59.321 174.183 59.321C174.833 59.321 175.379 59.555 175.821 60.023C176.289 60.491 176.523 61.063 176.523 61.739C176.523 62.415 176.289 62.987 175.821 63.455C175.379 63.923 174.833 64.157 174.183 64.157ZM175.899 67.628V89H172.35V67.628H175.899ZM185.496 60.14V89H181.947V60.14H185.496ZM195.094 60.14V89H191.545V60.14H195.094ZM227.608 82.955H215.752L213.568 89H209.824L219.652 61.973H223.747L233.536 89H229.792L227.608 82.955ZM226.594 80.069L221.68 66.341L216.766 80.069H226.594ZM241.368 71.606C242.096 70.332 243.162 69.292 244.566 68.486C245.97 67.68 247.569 67.277 249.363 67.277C251.287 67.277 253.016 67.732 254.55 68.642C256.084 69.552 257.293 70.839 258.177 72.503C259.061 74.141 259.503 76.052 259.503 78.236C259.503 80.394 259.061 82.318 258.177 84.008C257.293 85.698 256.071 87.011 254.511 87.947C252.977 88.883 251.261 89.351 249.363 89.351C247.517 89.351 245.892 88.948 244.488 88.142C243.11 87.336 242.07 86.309 241.368 85.061V89H237.819V60.14H241.368V71.606ZM255.876 78.236C255.876 76.624 255.551 75.22 254.901 74.024C254.251 72.828 253.367 71.918 252.249 71.294C251.157 70.67 249.948 70.358 248.622 70.358C247.322 70.358 246.113 70.683 244.995 71.333C243.903 71.957 243.019 72.88 242.343 74.102C241.693 75.298 241.368 76.689 241.368 78.275C241.368 79.887 241.693 81.304 242.343 82.526C243.019 83.722 243.903 84.645 244.995 85.295C246.113 85.919 247.322 86.231 248.622 86.231C249.948 86.231 251.157 85.919 252.249 85.295C253.367 84.645 254.251 83.722 254.901 82.526C255.551 81.304 255.876 79.874 255.876 78.236ZM262.849 78.236C262.849 76.052 263.291 74.141 264.175 72.503C265.059 70.839 266.268 69.552 267.802 68.642C269.362 67.732 271.104 67.277 273.028 67.277C274.692 67.277 276.239 67.667 277.669 68.447C279.099 69.201 280.191 70.202 280.945 71.45V60.14H284.533V89H280.945V84.983C280.243 86.257 279.203 87.31 277.825 88.142C276.447 88.948 274.835 89.351 272.989 89.351C271.091 89.351 269.362 88.883 267.802 87.947C266.268 87.011 265.059 85.698 264.175 84.008C263.291 82.318 262.849 80.394 262.849 78.236ZM280.945 78.275C280.945 76.663 280.62 75.259 279.97 74.063C279.32 72.867 278.436 71.957 277.318 71.333C276.226 70.683 275.017 70.358 273.691 70.358C272.365 70.358 271.156 70.67 270.064 71.294C268.972 71.918 268.101 72.828 267.451 74.024C266.801 75.22 266.476 76.624 266.476 78.236C266.476 79.874 266.801 81.304 267.451 82.526C268.101 83.722 268.972 84.645 270.064 85.295C271.156 85.919 272.365 86.231 273.691 86.231C275.017 86.231 276.226 85.919 277.318 85.295C278.436 84.645 279.32 83.722 279.97 82.526C280.62 81.304 280.945 79.887 280.945 78.275ZM309.484 67.628V89H305.935V85.841C305.259 86.933 304.31 87.791 303.088 88.415C301.892 89.013 300.566 89.312 299.11 89.312C297.446 89.312 295.951 88.974 294.625 88.298C293.299 87.596 292.246 86.556 291.466 85.178C290.712 83.8 290.335 82.123 290.335 80.147V67.628H293.845V79.679C293.845 81.785 294.378 83.41 295.444 84.554C296.51 85.672 297.966 86.231 299.812 86.231C301.71 86.231 303.205 85.646 304.297 84.476C305.389 83.306 305.935 81.603 305.935 79.367V67.628H309.484ZM319.026 60.14V89H315.477V60.14H319.026ZM328.623 60.14V89H325.074V60.14H328.623ZM333.346 78.236C333.346 76.052 333.788 74.141 334.672 72.503C335.556 70.839 336.765 69.552 338.299 68.642C339.859 67.732 341.588 67.277 343.486 67.277C345.358 67.277 346.983 67.68 348.361 68.486C349.739 69.292 350.766 70.306 351.442 71.528V67.628H355.03V89H351.442V85.022C350.74 86.27 349.687 87.31 348.283 88.142C346.905 88.948 345.293 89.351 343.447 89.351C341.549 89.351 339.833 88.883 338.299 87.947C336.765 87.011 335.556 85.698 334.672 84.008C333.788 82.318 333.346 80.394 333.346 78.236ZM351.442 78.275C351.442 76.663 351.117 75.259 350.467 74.063C349.817 72.867 348.933 71.957 347.815 71.333C346.723 70.683 345.514 70.358 344.188 70.358C342.862 70.358 341.653 70.67 340.561 71.294C339.469 71.918 338.598 72.828 337.948 74.024C337.298 75.22 336.973 76.624 336.973 78.236C336.973 79.874 337.298 81.304 337.948 82.526C338.598 83.722 339.469 84.645 340.561 85.295C341.653 85.919 342.862 86.231 344.188 86.231C345.514 86.231 346.723 85.919 347.815 85.295C348.933 84.645 349.817 83.722 350.467 82.526C351.117 81.304 351.442 79.887 351.442 78.275ZM371.635 67.238C373.247 67.238 374.703 67.589 376.003 68.291C377.303 68.967 378.317 69.994 379.045 71.372C379.799 72.75 380.176 74.427 380.176 76.403V89H376.666V76.91C376.666 74.778 376.133 73.153 375.067 72.035C374.001 70.891 372.545 70.319 370.699 70.319C368.827 70.319 367.332 70.904 366.214 72.074C365.122 73.244 364.576 74.947 364.576 77.183V89H361.027V60.14H364.576V70.67C365.278 69.578 366.24 68.733 367.462 68.135C368.71 67.537 370.101 67.238 371.635 67.238ZM413.102 61.817V64.703H405.692V89H402.143V64.703H394.694V61.817H413.102ZM426.792 89.351C424.79 89.351 422.97 88.896 421.332 87.986C419.72 87.076 418.446 85.789 417.51 84.125C416.6 82.435 416.145 80.485 416.145 78.275C416.145 76.091 416.613 74.167 417.549 72.503C418.511 70.813 419.811 69.526 421.449 68.642C423.087 67.732 424.92 67.277 426.948 67.277C428.976 67.277 430.809 67.732 432.447 68.642C434.085 69.526 435.372 70.8 436.308 72.464C437.27 74.128 437.751 76.065 437.751 78.275C437.751 80.485 437.257 82.435 436.269 84.125C435.307 85.789 433.994 87.076 432.33 87.986C430.666 88.896 428.82 89.351 426.792 89.351ZM426.792 86.231C428.066 86.231 429.262 85.932 430.38 85.334C431.498 84.736 432.395 83.839 433.071 82.643C433.773 81.447 434.124 79.991 434.124 78.275C434.124 76.559 433.786 75.103 433.11 73.907C432.434 72.711 431.55 71.827 430.458 71.255C429.366 70.657 428.183 70.358 426.909 70.358C425.609 70.358 424.413 70.657 423.321 71.255C422.255 71.827 421.397 72.711 420.747 73.907C420.097 75.103 419.772 76.559 419.772 78.275C419.772 80.017 420.084 81.486 420.708 82.682C421.358 83.878 422.216 84.775 423.282 85.373C424.348 85.945 425.518 86.231 426.792 86.231ZM441.091 78.236C441.091 76.052 441.533 74.141 442.417 72.503C443.301 70.839 444.51 69.552 446.044 68.642C447.604 67.732 449.346 67.277 451.27 67.277C452.934 67.277 454.481 67.667 455.911 68.447C457.341 69.201 458.433 70.202 459.187 71.45V60.14H462.775V89H459.187V84.983C458.485 86.257 457.445 87.31 456.067 88.142C454.689 88.948 453.077 89.351 451.231 89.351C449.333 89.351 447.604 88.883 446.044 87.947C444.51 87.011 443.301 85.698 442.417 84.008C441.533 82.318 441.091 80.394 441.091 78.236ZM459.187 78.275C459.187 76.663 458.862 75.259 458.212 74.063C457.562 72.867 456.678 71.957 455.56 71.333C454.468 70.683 453.259 70.358 451.933 70.358C450.607 70.358 449.398 70.67 448.306 71.294C447.214 71.918 446.343 72.828 445.693 74.024C445.043 75.22 444.718 76.624 444.718 78.236C444.718 79.874 445.043 81.304 445.693 82.526C446.343 83.722 447.214 84.645 448.306 85.295C449.398 85.919 450.607 86.231 451.933 86.231C453.259 86.231 454.468 85.919 455.56 85.295C456.678 84.645 457.562 83.722 458.212 82.526C458.862 81.304 459.187 79.887 459.187 78.275ZM467.447 78.236C467.447 76.052 467.889 74.141 468.773 72.503C469.657 70.839 470.866 69.552 472.4 68.642C473.96 67.732 475.689 67.277 477.587 67.277C479.459 67.277 481.084 67.68 482.462 68.486C483.84 69.292 484.867 70.306 485.543 71.528V67.628H489.131V89H485.543V85.022C484.841 86.27 483.788 87.31 482.384 88.142C481.006 88.948 479.394 89.351 477.548 89.351C475.65 89.351 473.934 88.883 472.4 87.947C470.866 87.011 469.657 85.698 468.773 84.008C467.889 82.318 467.447 80.394 467.447 78.236ZM485.543 78.275C485.543 76.663 485.218 75.259 484.568 74.063C483.918 72.867 483.034 71.957 481.916 71.333C480.824 70.683 479.615 70.358 478.289 70.358C476.963 70.358 475.754 70.67 474.662 71.294C473.57 71.918 472.699 72.828 472.049 74.024C471.399 75.22 471.074 76.624 471.074 78.236C471.074 79.874 471.399 81.304 472.049 82.526C472.699 83.722 473.57 84.645 474.662 85.295C475.754 85.919 476.963 86.231 478.289 86.231C479.615 86.231 480.824 85.919 481.916 85.295C483.034 84.645 483.918 83.722 484.568 82.526C485.218 81.304 485.543 79.887 485.543 78.275ZM513.536 67.628L500.666 99.062H497L501.212 88.766L492.593 67.628H496.532L503.24 84.944L509.87 67.628H513.536Z" fill="#3B3B3B"/>
<g clip-path="url(#clip0_21_20)">
<path d="M102.138 77.1569L84.3685 56.021L81.6045 59.5967L102.138 84.3229L146.138 31.3383L142.874 27.6467L102.138 77.1569Z" fill="#0EB200"/>
</g>
<defs>
<filter id="filter0_bdd_21_20" x="-6" y="-10" width="683" height="181" filterUnits="userSpaceOnUse" color-interpolation-filters="sRGB">
<feFlood flood-opacity="0" result="BackgroundImageFix"/>
<feGaussianBlur in="BackgroundImageFix" stdDeviation="5"/>
<feComposite in2="SourceAlpha" operator="in" result="effect1_backgroundBlur_21_20"/>
<feColorMatrix in="SourceAlpha" type="matrix" values="0 0 0 0 0 0 0 0 0 0 0 0 0 0 0 0 0 0 127 0" result="hardAlpha"/>
<feOffset dx="10" dy="10"/>
<feGaussianBlur stdDeviation="5"/>
<feComposite in2="hardAlpha" operator="out"/>
<feColorMatrix type="matrix" values="0 0 0 0 0.880512 0 0 0 0 0.880512 0 0 0 0 0.880512 0 0 0 0.25 0"/>
<feBlend mode="normal" in2="effect1_backgroundBlur_21_20" result="effect2_dropShadow_21_20"/>
<feColorMatrix in="SourceAlpha" type="matrix" values="0 0 0 0 0 0 0 0 0 0 0 0 0 0 0 0 0 0 127 0" result="hardAlpha"/>
<feOffset dy="4"/>
<feGaussianBlur stdDeviation="2"/>
<feComposite in2="hardAlpha" operator="out"/>
<feColorMatrix type="matrix" values="0 0 0 0 0 0 0 0 0 0 0 0 0 0 0 0 0 0 0.25 0"/>
<feBlend mode="normal" in2="effect2_dropShadow_21_20" result="effect3_dropShadow_21_20"/>
<feBlend mode="normal" in="SourceGraphic" in2="effect3_dropShadow_21_20" result="shape"/>
</filter>
<clipPath id="clip0_21_20">
<rect width="88" height="56" fill="white" transform="translate(70 28)"/>
</clipPath>
</defs>
</svg>
