<svg width="674" height="171" viewBox="0 0 674 171" fill="none" xmlns="http://www.w3.org/2000/svg">
<g filter="url(#filter0_bdd_21_12)">
<rect x="4" width="650" height="151" rx="50" fill="white" fill-opacity="0.5" shape-rendering="crispEdges"/>
</g>
<rect x="87" y="60" width="30" height="30" rx="6" stroke="#545454" stroke-width="2"/>
<path d="M157.466 61.817C160.43 61.817 162.991 62.376 165.149 63.494C167.333 64.586 168.997 66.159 170.141 68.213C171.311 70.267 171.896 72.685 171.896 75.467C171.896 78.249 171.311 80.667 170.141 82.721C168.997 84.749 167.333 86.309 165.149 87.401C162.991 88.467 160.43 89 157.466 89H149.003V61.817H157.466ZM157.466 86.075C160.976 86.075 163.654 85.152 165.5 83.306C167.346 81.434 168.269 78.821 168.269 75.467C168.269 72.087 167.333 69.448 165.461 67.55C163.615 65.652 160.95 64.703 157.466 64.703H152.552V86.075H157.466ZM196.077 77.495C196.077 78.171 196.038 78.886 195.96 79.64H178.878C179.008 81.746 179.723 83.397 181.023 84.593C182.349 85.763 183.948 86.348 185.82 86.348C187.354 86.348 188.628 85.997 189.642 85.295C190.682 84.567 191.41 83.605 191.826 82.409H195.648C195.076 84.463 193.932 86.14 192.216 87.44C190.5 88.714 188.368 89.351 185.82 89.351C183.792 89.351 181.972 88.896 180.36 87.986C178.774 87.076 177.526 85.789 176.616 84.125C175.706 82.435 175.251 80.485 175.251 78.275C175.251 76.065 175.693 74.128 176.577 72.464C177.461 70.8 178.696 69.526 180.282 68.642C181.894 67.732 183.74 67.277 185.82 67.277C187.848 67.277 189.642 67.719 191.202 68.603C192.762 69.487 193.958 70.709 194.79 72.269C195.648 73.803 196.077 75.545 196.077 77.495ZM192.411 76.754C192.411 75.402 192.112 74.245 191.514 73.283C190.916 72.295 190.097 71.554 189.057 71.06C188.043 70.54 186.912 70.28 185.664 70.28C183.87 70.28 182.336 70.852 181.062 71.996C179.814 73.14 179.099 74.726 178.917 76.754H192.411ZM208.328 89.351C206.69 89.351 205.221 89.078 203.921 88.532C202.621 87.96 201.594 87.18 200.84 86.192C200.086 85.178 199.67 84.021 199.592 82.721H203.258C203.362 83.787 203.856 84.658 204.74 85.334C205.65 86.01 206.833 86.348 208.289 86.348C209.641 86.348 210.707 86.049 211.487 85.451C212.267 84.853 212.657 84.099 212.657 83.189C212.657 82.253 212.241 81.564 211.409 81.122C210.577 80.654 209.29 80.199 207.548 79.757C205.962 79.341 204.662 78.925 203.648 78.509C202.66 78.067 201.802 77.43 201.074 76.598C200.372 75.74 200.021 74.622 200.021 73.244C200.021 72.152 200.346 71.151 200.996 70.241C201.646 69.331 202.569 68.616 203.765 68.096C204.961 67.55 206.326 67.277 207.86 67.277C210.226 67.277 212.137 67.875 213.593 69.071C215.049 70.267 215.829 71.905 215.933 73.985H212.384C212.306 72.867 211.851 71.97 211.019 71.294C210.213 70.618 209.121 70.28 207.743 70.28C206.469 70.28 205.455 70.553 204.701 71.099C203.947 71.645 203.57 72.36 203.57 73.244C203.57 73.946 203.791 74.531 204.233 74.999C204.701 75.441 205.273 75.805 205.949 76.091C206.651 76.351 207.613 76.65 208.835 76.988C210.369 77.404 211.617 77.82 212.579 78.236C213.541 78.626 214.36 79.224 215.036 80.03C215.738 80.836 216.102 81.889 216.128 83.189C216.128 84.359 215.803 85.412 215.153 86.348C214.503 87.284 213.58 88.025 212.384 88.571C211.214 89.091 209.862 89.351 208.328 89.351ZM222.971 64.157C222.295 64.157 221.723 63.923 221.255 63.455C220.787 62.987 220.553 62.415 220.553 61.739C220.553 61.063 220.787 60.491 221.255 60.023C221.723 59.555 222.295 59.321 222.971 59.321C223.621 59.321 224.167 59.555 224.609 60.023C225.077 60.491 225.311 61.063 225.311 61.739C225.311 62.415 225.077 62.987 224.609 63.455C224.167 63.923 223.621 64.157 222.971 64.157ZM224.687 67.628V89H221.138V67.628H224.687ZM239.549 67.277C241.395 67.277 243.007 67.68 244.385 68.486C245.789 69.292 246.829 70.306 247.505 71.528V67.628H251.093V89.468C251.093 91.418 250.677 93.147 249.845 94.655C249.013 96.189 247.817 97.385 246.257 98.243C244.723 99.101 242.929 99.53 240.875 99.53C238.067 99.53 235.727 98.867 233.855 97.541C231.983 96.215 230.878 94.408 230.54 92.12H234.05C234.44 93.42 235.246 94.46 236.468 95.24C237.69 96.046 239.159 96.449 240.875 96.449C242.825 96.449 244.411 95.838 245.633 94.616C246.881 93.394 247.505 91.678 247.505 89.468V84.983C246.803 86.231 245.763 87.271 244.385 88.103C243.007 88.935 241.395 89.351 239.549 89.351C237.651 89.351 235.922 88.883 234.362 87.947C232.828 87.011 231.619 85.698 230.735 84.008C229.851 82.318 229.409 80.394 229.409 78.236C229.409 76.052 229.851 74.141 230.735 72.503C231.619 70.839 232.828 69.552 234.362 68.642C235.922 67.732 237.651 67.277 239.549 67.277ZM247.505 78.275C247.505 76.663 247.18 75.259 246.53 74.063C245.88 72.867 244.996 71.957 243.878 71.333C242.786 70.683 241.577 70.358 240.251 70.358C238.925 70.358 237.716 70.67 236.624 71.294C235.532 71.918 234.661 72.828 234.011 74.024C233.361 75.22 233.036 76.624 233.036 78.236C233.036 79.874 233.361 81.304 234.011 82.526C234.661 83.722 235.532 84.645 236.624 85.295C237.716 85.919 238.925 86.231 240.251 86.231C241.577 86.231 242.786 85.919 243.878 85.295C244.996 84.645 245.88 83.722 246.53 82.526C247.18 81.304 247.505 79.887 247.505 78.275ZM267.504 67.238C270.104 67.238 272.21 68.031 273.822 69.617C275.434 71.177 276.24 73.439 276.24 76.403V89H272.73V76.91C272.73 74.778 272.197 73.153 271.131 72.035C270.065 70.891 268.609 70.319 266.763 70.319C264.891 70.319 263.396 70.904 262.278 72.074C261.186 73.244 260.64 74.947 260.64 77.183V89H257.091V67.628H260.64V70.67C261.342 69.578 262.291 68.733 263.487 68.135C264.709 67.537 266.048 67.238 267.504 67.238ZM313.807 89H310.258L295.984 67.355V89H292.435V61.778H295.984L310.258 83.384V61.778H313.807V89ZM339.357 77.495C339.357 78.171 339.318 78.886 339.24 79.64H322.158C322.288 81.746 323.003 83.397 324.303 84.593C325.629 85.763 327.228 86.348 329.1 86.348C330.634 86.348 331.908 85.997 332.922 85.295C333.962 84.567 334.69 83.605 335.106 82.409H338.928C338.356 84.463 337.212 86.14 335.496 87.44C333.78 88.714 331.648 89.351 329.1 89.351C327.072 89.351 325.252 88.896 323.64 87.986C322.054 87.076 320.806 85.789 319.896 84.125C318.986 82.435 318.531 80.485 318.531 78.275C318.531 76.065 318.973 74.128 319.857 72.464C320.741 70.8 321.976 69.526 323.562 68.642C325.174 67.732 327.02 67.277 329.1 67.277C331.128 67.277 332.922 67.719 334.482 68.603C336.042 69.487 337.238 70.709 338.07 72.269C338.928 73.803 339.357 75.545 339.357 77.495ZM335.691 76.754C335.691 75.402 335.392 74.245 334.794 73.283C334.196 72.295 333.377 71.554 332.337 71.06C331.323 70.54 330.192 70.28 328.944 70.28C327.15 70.28 325.616 70.852 324.342 71.996C323.094 73.14 322.379 74.726 322.197 76.754H335.691ZM372.511 67.628L365.842 89H362.176L357.028 72.035L351.88 89H348.214L341.506 67.628H345.133L350.047 85.568L355.351 67.628H358.978L364.165 85.607L369.001 67.628H372.511ZM407.374 61.817V89H403.825V76.676H389.98V89H386.431V61.817H389.98V73.751H403.825V61.817H407.374ZM422.755 89.351C420.753 89.351 418.933 88.896 417.295 87.986C415.683 87.076 414.409 85.789 413.473 84.125C412.563 82.435 412.108 80.485 412.108 78.275C412.108 76.091 412.576 74.167 413.512 72.503C414.474 70.813 415.774 69.526 417.412 68.642C419.05 67.732 420.883 67.277 422.911 67.277C424.939 67.277 426.772 67.732 428.41 68.642C430.048 69.526 431.335 70.8 432.271 72.464C433.233 74.128 433.714 76.065 433.714 78.275C433.714 80.485 433.22 82.435 432.232 84.125C431.27 85.789 429.957 87.076 428.293 87.986C426.629 88.896 424.783 89.351 422.755 89.351ZM422.755 86.231C424.029 86.231 425.225 85.932 426.343 85.334C427.461 84.736 428.358 83.839 429.034 82.643C429.736 81.447 430.087 79.991 430.087 78.275C430.087 76.559 429.749 75.103 429.073 73.907C428.397 72.711 427.513 71.827 426.421 71.255C425.329 70.657 424.146 70.358 422.872 70.358C421.572 70.358 420.376 70.657 419.284 71.255C418.218 71.827 417.36 72.711 416.71 73.907C416.06 75.103 415.735 76.559 415.735 78.275C415.735 80.017 416.047 81.486 416.671 82.682C417.321 83.878 418.179 84.775 419.245 85.373C420.311 85.945 421.481 86.231 422.755 86.231ZM464.081 67.238C465.745 67.238 467.227 67.589 468.527 68.291C469.827 68.967 470.854 69.994 471.608 71.372C472.362 72.75 472.739 74.427 472.739 76.403V89H469.229V76.91C469.229 74.778 468.696 73.153 467.63 72.035C466.59 70.891 465.173 70.319 463.379 70.319C461.533 70.319 460.064 70.917 458.972 72.113C457.88 73.283 457.334 74.986 457.334 77.222V89H453.824V76.91C453.824 74.778 453.291 73.153 452.225 72.035C451.185 70.891 449.768 70.319 447.974 70.319C446.128 70.319 444.659 70.917 443.567 72.113C442.475 73.283 441.929 74.986 441.929 77.222V89H438.38V67.628H441.929V70.709C442.631 69.591 443.567 68.733 444.737 68.135C445.933 67.537 447.246 67.238 448.676 67.238C450.47 67.238 452.056 67.641 453.434 68.447C454.812 69.253 455.839 70.436 456.515 71.996C457.113 70.488 458.101 69.318 459.479 68.486C460.857 67.654 462.391 67.238 464.081 67.238ZM498.061 77.495C498.061 78.171 498.022 78.886 497.944 79.64H480.862C480.992 81.746 481.707 83.397 483.007 84.593C484.333 85.763 485.932 86.348 487.804 86.348C489.338 86.348 490.612 85.997 491.626 85.295C492.666 84.567 493.394 83.605 493.81 82.409H497.632C497.06 84.463 495.916 86.14 494.2 87.44C492.484 88.714 490.352 89.351 487.804 89.351C485.776 89.351 483.956 88.896 482.344 87.986C480.758 87.076 479.51 85.789 478.6 84.125C477.69 82.435 477.235 80.485 477.235 78.275C477.235 76.065 477.677 74.128 478.561 72.464C479.445 70.8 480.68 69.526 482.266 68.642C483.878 67.732 485.724 67.277 487.804 67.277C489.832 67.277 491.626 67.719 493.186 68.603C494.746 69.487 495.942 70.709 496.774 72.269C497.632 73.803 498.061 75.545 498.061 77.495ZM494.395 76.754C494.395 75.402 494.096 74.245 493.498 73.283C492.9 72.295 492.081 71.554 491.041 71.06C490.027 70.54 488.896 70.28 487.648 70.28C485.854 70.28 484.32 70.852 483.046 71.996C481.798 73.14 481.083 74.726 480.901 76.754H494.395ZM531.317 69.773C531.317 72.035 530.537 73.92 528.977 75.428C527.443 76.91 525.09 77.651 521.918 77.651H516.692V89H513.143V61.817H521.918C524.986 61.817 527.313 62.558 528.899 64.04C530.511 65.522 531.317 67.433 531.317 69.773ZM521.918 74.726C523.894 74.726 525.35 74.297 526.286 73.439C527.222 72.581 527.69 71.359 527.69 69.773C527.69 66.419 525.766 64.742 521.918 64.742H516.692V74.726H521.918ZM534.402 78.236C534.402 76.052 534.844 74.141 535.728 72.503C536.612 70.839 537.821 69.552 539.355 68.642C540.915 67.732 542.644 67.277 544.542 67.277C546.414 67.277 548.039 67.68 549.417 68.486C550.795 69.292 551.822 70.306 552.498 71.528V67.628H556.086V89H552.498V85.022C551.796 86.27 550.743 87.31 549.339 88.142C547.961 88.948 546.349 89.351 544.503 89.351C542.605 89.351 540.889 88.883 539.355 87.947C537.821 87.011 536.612 85.698 535.728 84.008C534.844 82.318 534.402 80.394 534.402 78.236ZM552.498 78.275C552.498 76.663 552.173 75.259 551.523 74.063C550.873 72.867 549.989 71.957 548.871 71.333C547.779 70.683 546.57 70.358 545.244 70.358C543.918 70.358 542.709 70.67 541.617 71.294C540.525 71.918 539.654 72.828 539.004 74.024C538.354 75.22 538.029 76.624 538.029 78.236C538.029 79.874 538.354 81.304 539.004 82.526C539.654 83.722 540.525 84.645 541.617 85.295C542.709 85.919 543.918 86.231 545.244 86.231C546.57 86.231 547.779 85.919 548.871 85.295C549.989 84.645 550.873 83.722 551.523 82.526C552.173 81.304 552.498 79.887 552.498 78.275ZM570.897 67.277C572.743 67.277 574.355 67.68 575.733 68.486C577.137 69.292 578.177 70.306 578.853 71.528V67.628H582.441V89.468C582.441 91.418 582.025 93.147 581.193 94.655C580.361 96.189 579.165 97.385 577.605 98.243C576.071 99.101 574.277 99.53 572.223 99.53C569.415 99.53 567.075 98.867 565.203 97.541C563.331 96.215 562.226 94.408 561.888 92.12H565.398C565.788 93.42 566.594 94.46 567.816 95.24C569.038 96.046 570.507 96.449 572.223 96.449C574.173 96.449 575.759 95.838 576.981 94.616C578.229 93.394 578.853 91.678 578.853 89.468V84.983C578.151 86.231 577.111 87.271 575.733 88.103C574.355 88.935 572.743 89.351 570.897 89.351C568.999 89.351 567.27 88.883 565.71 87.947C564.176 87.011 562.967 85.698 562.083 84.008C561.199 82.318 560.757 80.394 560.757 78.236C560.757 76.052 561.199 74.141 562.083 72.503C562.967 70.839 564.176 69.552 565.71 68.642C567.27 67.732 568.999 67.277 570.897 67.277ZM578.853 78.275C578.853 76.663 578.528 75.259 577.878 74.063C577.228 72.867 576.344 71.957 575.226 71.333C574.134 70.683 572.925 70.358 571.599 70.358C570.273 70.358 569.064 70.67 567.972 71.294C566.88 71.918 566.009 72.828 565.359 74.024C564.709 75.22 564.384 76.624 564.384 78.236C564.384 79.874 564.709 81.304 565.359 82.526C566.009 83.722 566.88 84.645 567.972 85.295C569.064 85.919 570.273 86.231 571.599 86.231C572.925 86.231 574.134 85.919 575.226 85.295C576.344 84.645 577.228 83.722 577.878 82.526C578.528 81.304 578.853 79.887 578.853 78.275ZM607.939 77.495C607.939 78.171 607.9 78.886 607.822 79.64H590.74C590.87 81.746 591.585 83.397 592.885 84.593C594.211 85.763 595.81 86.348 597.682 86.348C599.216 86.348 600.49 85.997 601.504 85.295C602.544 84.567 603.272 83.605 603.688 82.409H607.51C606.938 84.463 605.794 86.14 604.078 87.44C602.362 88.714 600.23 89.351 597.682 89.351C595.654 89.351 593.834 88.896 592.222 87.986C590.636 87.076 589.388 85.789 588.478 84.125C587.568 82.435 587.113 80.485 587.113 78.275C587.113 76.065 587.555 74.128 588.439 72.464C589.323 70.8 590.558 69.526 592.144 68.642C593.756 67.732 595.602 67.277 597.682 67.277C599.71 67.277 601.504 67.719 603.064 68.603C604.624 69.487 605.82 70.709 606.652 72.269C607.51 73.803 607.939 75.545 607.939 77.495ZM604.273 76.754C604.273 75.402 603.974 74.245 603.376 73.283C602.778 72.295 601.959 71.554 600.919 71.06C599.905 70.54 598.774 70.28 597.526 70.28C595.732 70.28 594.198 70.852 592.924 71.996C591.676 73.14 590.961 74.726 590.779 76.754H604.273Z" fill="#3B3B3B"/>
<defs>
<filter id="filter0_bdd_21_12" x="-26" y="-30" width="710" height="211" filterUnits="userSpaceOnUse" color-interpolation-filters="sRGB">
<feFlood flood-opacity="0" result="BackgroundImageFix"/>
<feGaussianBlur in="BackgroundImageFix" stdDeviation="15"/>
<feComposite in2="SourceAlpha" operator="in" result="effect1_backgroundBlur_21_12"/>
<feColorMatrix in="SourceAlpha" type="matrix" values="0 0 0 0 0 0 0 0 0 0 0 0 0 0 0 0 0 0 127 0" result="hardAlpha"/>
<feOffset dx="10" dy="10"/>
<feGaussianBlur stdDeviation="5"/>
<feComposite in2="hardAlpha" operator="out"/>
<feColorMatrix type="matrix" values="0 0 0 0 0.880512 0 0 0 0 0.880512 0 0 0 0 0.880512 0 0 0 0.25 0"/>
<feBlend mode="normal" in2="effect1_backgroundBlur_21_12" result="effect2_dropShadow_21_12"/>
<feColorMatrix in="SourceAlpha" type="matrix" values="0 0 0 0 0 0 0 0 0 0 0 0 0 0 0 0 0 0 127 0" result="hardAlpha"/>
<feOffset dy="4"/>
<feGaussianBlur stdDeviation="2"/>
<feComposite in2="hardAlpha" operator="out"/>
<feColorMatrix type="matrix" values="0 0 0 0 0 0 0 0 0 0 0 0 0 0 0 0 0 0 0.25 0"/>
<feBlend mode="normal" in2="effect2_dropShadow_21_12" result="effect3_dropShadow_21_12"/>
<feBlend mode="normal" in="SourceGraphic" in2="effect3_dropShadow_21_12" result="shape"/>
</filter>
</defs>
</svg>
