<svg width="774" height="171" viewBox="0 0 774 171" fill="none" xmlns="http://www.w3.org/2000/svg">
<g filter="url(#filter0_bdd_19_11)">
<rect x="4" width="750" height="151" rx="50" fill="white" fill-opacity="0.5" shape-rendering="crispEdges"/>
</g>
<rect x="87" y="60" width="30" height="30" rx="6" stroke="#545454" stroke-width="2"/>
<path d="M183.167 61.817L175.289 89H171.311L164.993 67.121L158.441 89L154.502 89.039L146.897 61.817H150.68L156.608 84.866L163.16 61.817H167.138L173.378 84.788L179.345 61.817H183.167ZM190.6 71.099C191.224 69.877 192.108 68.928 193.252 68.252C194.422 67.576 195.839 67.238 197.503 67.238V70.904H196.567C192.589 70.904 190.6 73.062 190.6 77.378V89H187.051V67.628H190.6V71.099ZM203.433 64.157C202.757 64.157 202.185 63.923 201.717 63.455C201.249 62.987 201.015 62.415 201.015 61.739C201.015 61.063 201.249 60.491 201.717 60.023C202.185 59.555 202.757 59.321 203.433 59.321C204.083 59.321 204.629 59.555 205.071 60.023C205.539 60.491 205.773 61.063 205.773 61.739C205.773 62.415 205.539 62.987 205.071 63.455C204.629 63.923 204.083 64.157 203.433 64.157ZM205.149 67.628V89H201.6V67.628H205.149ZM215.526 70.553V83.15C215.526 84.19 215.747 84.931 216.189 85.373C216.631 85.789 217.398 85.997 218.49 85.997H221.103V89H217.905C215.929 89 214.447 88.545 213.459 87.635C212.471 86.725 211.977 85.23 211.977 83.15V70.553H209.208V67.628H211.977V62.246H215.526V67.628H221.103V70.553H215.526ZM244.903 77.495C244.903 78.171 244.864 78.886 244.786 79.64H227.704C227.834 81.746 228.549 83.397 229.849 84.593C231.175 85.763 232.774 86.348 234.646 86.348C236.18 86.348 237.454 85.997 238.468 85.295C239.508 84.567 240.236 83.605 240.652 82.409H244.474C243.902 84.463 242.758 86.14 241.042 87.44C239.326 88.714 237.194 89.351 234.646 89.351C232.618 89.351 230.798 88.896 229.186 87.986C227.6 87.076 226.352 85.789 225.442 84.125C224.532 82.435 224.077 80.485 224.077 78.275C224.077 76.065 224.519 74.128 225.403 72.464C226.287 70.8 227.522 69.526 229.108 68.642C230.72 67.732 232.566 67.277 234.646 67.277C236.674 67.277 238.468 67.719 240.028 68.603C241.588 69.487 242.784 70.709 243.616 72.269C244.474 73.803 244.903 75.545 244.903 77.495ZM241.237 76.754C241.237 75.402 240.938 74.245 240.34 73.283C239.742 72.295 238.923 71.554 237.883 71.06C236.869 70.54 235.738 70.28 234.49 70.28C232.696 70.28 231.162 70.852 229.888 71.996C228.64 73.14 227.925 74.726 227.743 76.754H241.237ZM263.534 64.703V73.79H273.44V76.715H263.534V86.075H274.61V89H259.985V61.778H274.61V64.703H263.534ZM287.547 89.351C285.909 89.351 284.44 89.078 283.14 88.532C281.84 87.96 280.813 87.18 280.059 86.192C279.305 85.178 278.889 84.021 278.811 82.721H282.477C282.581 83.787 283.075 84.658 283.959 85.334C284.869 86.01 286.052 86.348 287.508 86.348C288.86 86.348 289.926 86.049 290.706 85.451C291.486 84.853 291.876 84.099 291.876 83.189C291.876 82.253 291.46 81.564 290.628 81.122C289.796 80.654 288.509 80.199 286.767 79.757C285.181 79.341 283.881 78.925 282.867 78.509C281.879 78.067 281.021 77.43 280.293 76.598C279.591 75.74 279.24 74.622 279.24 73.244C279.24 72.152 279.565 71.151 280.215 70.241C280.865 69.331 281.788 68.616 282.984 68.096C284.18 67.55 285.545 67.277 287.079 67.277C289.445 67.277 291.356 67.875 292.812 69.071C294.268 70.267 295.048 71.905 295.152 73.985H291.603C291.525 72.867 291.07 71.97 290.238 71.294C289.432 70.618 288.34 70.28 286.962 70.28C285.688 70.28 284.674 70.553 283.92 71.099C283.166 71.645 282.789 72.36 282.789 73.244C282.789 73.946 283.01 74.531 283.452 74.999C283.92 75.441 284.492 75.805 285.168 76.091C285.87 76.351 286.832 76.65 288.054 76.988C289.588 77.404 290.836 77.82 291.798 78.236C292.76 78.626 293.579 79.224 294.255 80.03C294.957 80.836 295.321 81.889 295.347 83.189C295.347 84.359 295.022 85.412 294.372 86.348C293.722 87.284 292.799 88.025 291.603 88.571C290.433 89.091 289.081 89.351 287.547 89.351ZM307.923 89.351C306.285 89.351 304.816 89.078 303.516 88.532C302.216 87.96 301.189 87.18 300.435 86.192C299.681 85.178 299.265 84.021 299.187 82.721H302.853C302.957 83.787 303.451 84.658 304.335 85.334C305.245 86.01 306.428 86.348 307.884 86.348C309.236 86.348 310.302 86.049 311.082 85.451C311.862 84.853 312.252 84.099 312.252 83.189C312.252 82.253 311.836 81.564 311.004 81.122C310.172 80.654 308.885 80.199 307.143 79.757C305.557 79.341 304.257 78.925 303.243 78.509C302.255 78.067 301.397 77.43 300.669 76.598C299.967 75.74 299.616 74.622 299.616 73.244C299.616 72.152 299.941 71.151 300.591 70.241C301.241 69.331 302.164 68.616 303.36 68.096C304.556 67.55 305.921 67.277 307.455 67.277C309.821 67.277 311.732 67.875 313.188 69.071C314.644 70.267 315.424 71.905 315.528 73.985H311.979C311.901 72.867 311.446 71.97 310.614 71.294C309.808 70.618 308.716 70.28 307.338 70.28C306.064 70.28 305.05 70.553 304.296 71.099C303.542 71.645 303.165 72.36 303.165 73.244C303.165 73.946 303.386 74.531 303.828 74.999C304.296 75.441 304.868 75.805 305.544 76.091C306.246 76.351 307.208 76.65 308.43 76.988C309.964 77.404 311.212 77.82 312.174 78.236C313.136 78.626 313.955 79.224 314.631 80.03C315.333 80.836 315.697 81.889 315.723 83.189C315.723 84.359 315.398 85.412 314.748 86.348C314.098 87.284 313.175 88.025 311.979 88.571C310.809 89.091 309.457 89.351 307.923 89.351ZM319.406 78.236C319.406 76.052 319.848 74.141 320.732 72.503C321.616 70.839 322.825 69.552 324.359 68.642C325.919 67.732 327.648 67.277 329.546 67.277C331.418 67.277 333.043 67.68 334.421 68.486C335.799 69.292 336.826 70.306 337.502 71.528V67.628H341.09V89H337.502V85.022C336.8 86.27 335.747 87.31 334.343 88.142C332.965 88.948 331.353 89.351 329.507 89.351C327.609 89.351 325.893 88.883 324.359 87.947C322.825 87.011 321.616 85.698 320.732 84.008C319.848 82.318 319.406 80.394 319.406 78.236ZM337.502 78.275C337.502 76.663 337.177 75.259 336.527 74.063C335.877 72.867 334.993 71.957 333.875 71.333C332.783 70.683 331.574 70.358 330.248 70.358C328.922 70.358 327.713 70.67 326.621 71.294C325.529 71.918 324.658 72.828 324.008 74.024C323.358 75.22 323.033 76.624 323.033 78.236C323.033 79.874 323.358 81.304 324.008 82.526C324.658 83.722 325.529 84.645 326.621 85.295C327.713 85.919 328.922 86.231 330.248 86.231C331.574 86.231 332.783 85.919 333.875 85.295C334.993 84.645 335.877 83.722 336.527 82.526C337.177 81.304 337.502 79.887 337.502 78.275ZM365.496 67.628L352.626 99.062H348.96L353.172 88.766L344.553 67.628H348.492L355.2 84.944L361.83 67.628H365.496ZM395.529 82.955H383.673L381.489 89H377.745L387.573 61.973H391.668L401.457 89H397.713L395.529 82.955ZM394.515 80.069L389.601 66.341L384.687 80.069H394.515ZM409.289 71.606C410.017 70.332 411.083 69.292 412.487 68.486C413.891 67.68 415.49 67.277 417.284 67.277C419.208 67.277 420.937 67.732 422.471 68.642C424.005 69.552 425.214 70.839 426.098 72.503C426.982 74.141 427.424 76.052 427.424 78.236C427.424 80.394 426.982 82.318 426.098 84.008C425.214 85.698 423.992 87.011 422.432 87.947C420.898 88.883 419.182 89.351 417.284 89.351C415.438 89.351 413.813 88.948 412.409 88.142C411.031 87.336 409.991 86.309 409.289 85.061V89H405.74V60.14H409.289V71.606ZM423.797 78.236C423.797 76.624 423.472 75.22 422.822 74.024C422.172 72.828 421.288 71.918 420.17 71.294C419.078 70.67 417.869 70.358 416.543 70.358C415.243 70.358 414.034 70.683 412.916 71.333C411.824 71.957 410.94 72.88 410.264 74.102C409.614 75.298 409.289 76.689 409.289 78.275C409.289 79.887 409.614 81.304 410.264 82.526C410.94 83.722 411.824 84.645 412.916 85.295C414.034 85.919 415.243 86.231 416.543 86.231C417.869 86.231 419.078 85.919 420.17 85.295C421.288 84.645 422.172 83.722 422.822 82.526C423.472 81.304 423.797 79.874 423.797 78.236ZM441.417 89.351C439.415 89.351 437.595 88.896 435.957 87.986C434.345 87.076 433.071 85.789 432.135 84.125C431.225 82.435 430.77 80.485 430.77 78.275C430.77 76.091 431.238 74.167 432.174 72.503C433.136 70.813 434.436 69.526 436.074 68.642C437.712 67.732 439.545 67.277 441.573 67.277C443.601 67.277 445.434 67.732 447.072 68.642C448.71 69.526 449.997 70.8 450.933 72.464C451.895 74.128 452.376 76.065 452.376 78.275C452.376 80.485 451.882 82.435 450.894 84.125C449.932 85.789 448.619 87.076 446.955 87.986C445.291 88.896 443.445 89.351 441.417 89.351ZM441.417 86.231C442.691 86.231 443.887 85.932 445.005 85.334C446.123 84.736 447.02 83.839 447.696 82.643C448.398 81.447 448.749 79.991 448.749 78.275C448.749 76.559 448.411 75.103 447.735 73.907C447.059 72.711 446.175 71.827 445.083 71.255C443.991 70.657 442.808 70.358 441.534 70.358C440.234 70.358 439.038 70.657 437.946 71.255C436.88 71.827 436.022 72.711 435.372 73.907C434.722 75.103 434.397 76.559 434.397 78.275C434.397 80.017 434.709 81.486 435.333 82.682C435.983 83.878 436.841 84.775 437.907 85.373C438.973 85.945 440.143 86.231 441.417 86.231ZM475.996 67.628V89H472.447V85.841C471.771 86.933 470.822 87.791 469.6 88.415C468.404 89.013 467.078 89.312 465.622 89.312C463.958 89.312 462.463 88.974 461.137 88.298C459.811 87.596 458.758 86.556 457.978 85.178C457.224 83.8 456.847 82.123 456.847 80.147V67.628H460.357V79.679C460.357 81.785 460.89 83.41 461.956 84.554C463.022 85.672 464.478 86.231 466.324 86.231C468.222 86.231 469.717 85.646 470.809 84.476C471.901 83.306 472.447 81.603 472.447 79.367V67.628H475.996ZM486.317 70.553V83.15C486.317 84.19 486.538 84.931 486.98 85.373C487.422 85.789 488.189 85.997 489.281 85.997H491.894V89H488.696C486.72 89 485.238 88.545 484.25 87.635C483.262 86.725 482.768 85.23 482.768 83.15V70.553H479.999V67.628H482.768V62.246H486.317V67.628H491.894V70.553H486.317ZM510.063 61.817V79.016C510.063 81.434 510.648 83.228 511.818 84.398C513.014 85.568 514.665 86.153 516.771 86.153C518.851 86.153 520.476 85.568 521.646 84.398C522.842 83.228 523.44 81.434 523.44 79.016V61.817H526.989V78.977C526.989 81.239 526.534 83.15 525.624 84.71C524.714 86.244 523.479 87.388 521.919 88.142C520.385 88.896 518.656 89.273 516.732 89.273C514.808 89.273 513.066 88.896 511.506 88.142C509.972 87.388 508.75 86.244 507.84 84.71C506.956 83.15 506.514 81.239 506.514 78.977V61.817H510.063ZM544.024 75.428L552.37 89H548.353L541.84 78.392L535.639 89H531.7L540.007 75.428L531.661 61.817H535.639L542.191 72.464L548.431 61.817H552.409L544.024 75.428ZM575.992 61.817C578.956 61.817 581.517 62.376 583.675 63.494C585.859 64.586 587.523 66.159 588.667 68.213C589.837 70.267 590.422 72.685 590.422 75.467C590.422 78.249 589.837 80.667 588.667 82.721C587.523 84.749 585.859 86.309 583.675 87.401C581.517 88.467 578.956 89 575.992 89H567.529V61.817H575.992ZM575.992 86.075C579.502 86.075 582.18 85.152 584.026 83.306C585.872 81.434 586.795 78.821 586.795 75.467C586.795 72.087 585.859 69.448 583.987 67.55C582.141 65.652 579.476 64.703 575.992 64.703H571.078V86.075H575.992ZM614.604 77.495C614.604 78.171 614.565 78.886 614.487 79.64H597.405C597.535 81.746 598.25 83.397 599.55 84.593C600.876 85.763 602.475 86.348 604.347 86.348C605.881 86.348 607.155 85.997 608.169 85.295C609.209 84.567 609.937 83.605 610.353 82.409H614.175C613.603 84.463 612.459 86.14 610.743 87.44C609.027 88.714 606.895 89.351 604.347 89.351C602.319 89.351 600.499 88.896 598.887 87.986C597.301 87.076 596.053 85.789 595.143 84.125C594.233 82.435 593.778 80.485 593.778 78.275C593.778 76.065 594.22 74.128 595.104 72.464C595.988 70.8 597.223 69.526 598.809 68.642C600.421 67.732 602.267 67.277 604.347 67.277C606.375 67.277 608.169 67.719 609.729 68.603C611.289 69.487 612.485 70.709 613.317 72.269C614.175 73.803 614.604 75.545 614.604 77.495ZM610.938 76.754C610.938 75.402 610.639 74.245 610.041 73.283C609.443 72.295 608.624 71.554 607.584 71.06C606.57 70.54 605.439 70.28 604.191 70.28C602.397 70.28 600.863 70.852 599.589 71.996C598.341 73.14 597.626 74.726 597.444 76.754H610.938ZM626.854 89.351C625.216 89.351 623.747 89.078 622.447 88.532C621.147 87.96 620.12 87.18 619.366 86.192C618.612 85.178 618.196 84.021 618.118 82.721H621.784C621.888 83.787 622.382 84.658 623.266 85.334C624.176 86.01 625.359 86.348 626.815 86.348C628.167 86.348 629.233 86.049 630.013 85.451C630.793 84.853 631.183 84.099 631.183 83.189C631.183 82.253 630.767 81.564 629.935 81.122C629.103 80.654 627.816 80.199 626.074 79.757C624.488 79.341 623.188 78.925 622.174 78.509C621.186 78.067 620.328 77.43 619.6 76.598C618.898 75.74 618.547 74.622 618.547 73.244C618.547 72.152 618.872 71.151 619.522 70.241C620.172 69.331 621.095 68.616 622.291 68.096C623.487 67.55 624.852 67.277 626.386 67.277C628.752 67.277 630.663 67.875 632.119 69.071C633.575 70.267 634.355 71.905 634.459 73.985H630.91C630.832 72.867 630.377 71.97 629.545 71.294C628.739 70.618 627.647 70.28 626.269 70.28C624.995 70.28 623.981 70.553 623.227 71.099C622.473 71.645 622.096 72.36 622.096 73.244C622.096 73.946 622.317 74.531 622.759 74.999C623.227 75.441 623.799 75.805 624.475 76.091C625.177 76.351 626.139 76.65 627.361 76.988C628.895 77.404 630.143 77.82 631.105 78.236C632.067 78.626 632.886 79.224 633.562 80.03C634.264 80.836 634.628 81.889 634.654 83.189C634.654 84.359 634.329 85.412 633.679 86.348C633.029 87.284 632.106 88.025 630.91 88.571C629.74 89.091 628.388 89.351 626.854 89.351ZM641.497 64.157C640.821 64.157 640.249 63.923 639.781 63.455C639.313 62.987 639.079 62.415 639.079 61.739C639.079 61.063 639.313 60.491 639.781 60.023C640.249 59.555 640.821 59.321 641.497 59.321C642.147 59.321 642.693 59.555 643.135 60.023C643.603 60.491 643.837 61.063 643.837 61.739C643.837 62.415 643.603 62.987 643.135 63.455C642.693 63.923 642.147 64.157 641.497 64.157ZM643.213 67.628V89H639.664V67.628H643.213ZM658.076 67.277C659.922 67.277 661.534 67.68 662.912 68.486C664.316 69.292 665.356 70.306 666.032 71.528V67.628H669.62V89.468C669.62 91.418 669.204 93.147 668.372 94.655C667.54 96.189 666.344 97.385 664.784 98.243C663.25 99.101 661.456 99.53 659.402 99.53C656.594 99.53 654.254 98.867 652.382 97.541C650.51 96.215 649.405 94.408 649.067 92.12H652.577C652.967 93.42 653.773 94.46 654.995 95.24C656.217 96.046 657.686 96.449 659.402 96.449C661.352 96.449 662.938 95.838 664.16 94.616C665.408 93.394 666.032 91.678 666.032 89.468V84.983C665.33 86.231 664.29 87.271 662.912 88.103C661.534 88.935 659.922 89.351 658.076 89.351C656.178 89.351 654.449 88.883 652.889 87.947C651.355 87.011 650.146 85.698 649.262 84.008C648.378 82.318 647.936 80.394 647.936 78.236C647.936 76.052 648.378 74.141 649.262 72.503C650.146 70.839 651.355 69.552 652.889 68.642C654.449 67.732 656.178 67.277 658.076 67.277ZM666.032 78.275C666.032 76.663 665.707 75.259 665.057 74.063C664.407 72.867 663.523 71.957 662.405 71.333C661.313 70.683 660.104 70.358 658.778 70.358C657.452 70.358 656.243 70.67 655.151 71.294C654.059 71.918 653.188 72.828 652.538 74.024C651.888 75.22 651.563 76.624 651.563 78.236C651.563 79.874 651.888 81.304 652.538 82.526C653.188 83.722 654.059 84.645 655.151 85.295C656.243 85.919 657.452 86.231 658.778 86.231C660.104 86.231 661.313 85.919 662.405 85.295C663.523 84.645 664.407 83.722 665.057 82.526C665.707 81.304 666.032 79.887 666.032 78.275ZM686.03 67.238C688.63 67.238 690.736 68.031 692.348 69.617C693.96 71.177 694.766 73.439 694.766 76.403V89H691.256V76.91C691.256 74.778 690.723 73.153 689.657 72.035C688.591 70.891 687.135 70.319 685.289 70.319C683.417 70.319 681.922 70.904 680.804 72.074C679.712 73.244 679.166 74.947 679.166 77.183V89H675.617V67.628H679.166V70.67C679.868 69.578 680.817 68.733 682.013 68.135C683.235 67.537 684.574 67.238 686.03 67.238Z" fill="#3B3B3B"/>
<g clip-path="url(#clip0_19_11)">
<path d="M102.138 77.1569L84.3685 56.021L81.6045 59.5967L102.138 84.3229L146.138 31.3383L142.874 27.6467L102.138 77.1569Z" fill="#0EB200"/>
</g>
<defs>
<filter id="filter0_bdd_19_11" x="-26" y="-30" width="810" height="211" filterUnits="userSpaceOnUse" color-interpolation-filters="sRGB">
<feFlood flood-opacity="0" result="BackgroundImageFix"/>
<feGaussianBlur in="BackgroundImageFix" stdDeviation="15"/>
<feComposite in2="SourceAlpha" operator="in" result="effect1_backgroundBlur_19_11"/>
<feColorMatrix in="SourceAlpha" type="matrix" values="0 0 0 0 0 0 0 0 0 0 0 0 0 0 0 0 0 0 127 0" result="hardAlpha"/>
<feOffset dx="10" dy="10"/>
<feGaussianBlur stdDeviation="5"/>
<feComposite in2="hardAlpha" operator="out"/>
<feColorMatrix type="matrix" values="0 0 0 0 0.880512 0 0 0 0 0.880512 0 0 0 0 0.880512 0 0 0 0.25 0"/>
<feBlend mode="normal" in2="effect1_backgroundBlur_19_11" result="effect2_dropShadow_19_11"/>
<feColorMatrix in="SourceAlpha" type="matrix" values="0 0 0 0 0 0 0 0 0 0 0 0 0 0 0 0 0 0 127 0" result="hardAlpha"/>
<feOffset dy="4"/>
<feGaussianBlur stdDeviation="2"/>
<feComposite in2="hardAlpha" operator="out"/>
<feColorMatrix type="matrix" values="0 0 0 0 0 0 0 0 0 0 0 0 0 0 0 0 0 0 0.25 0"/>
<feBlend mode="normal" in2="effect2_dropShadow_19_11" result="effect3_dropShadow_19_11"/>
<feBlend mode="normal" in="SourceGraphic" in2="effect3_dropShadow_19_11" result="shape"/>
</filter>
<clipPath id="clip0_19_11">
<rect width="88" height="56" fill="white" transform="translate(70 28)"/>
</clipPath>
</defs>
</svg>
