<svg width="521" height="171" viewBox="0 0 521 171" fill="none" xmlns="http://www.w3.org/2000/svg">
<g filter="url(#filter0_bdd_21_28)">
<rect x="4" width="497" height="151" rx="50" fill="white" fill-opacity="0.5" shape-rendering="crispEdges"/>
</g>
<rect x="87" y="60" width="30" height="30" rx="6" stroke="#545454" stroke-width="2"/>
<path d="M169.595 69.695C168.841 68.109 167.749 66.887 166.319 66.029C164.889 65.145 163.225 64.703 161.327 64.703C159.429 64.703 157.713 65.145 156.179 66.029C154.671 66.887 153.475 68.135 152.591 69.773C151.733 71.385 151.304 73.257 151.304 75.389C151.304 77.521 151.733 79.393 152.591 81.005C153.475 82.617 154.671 83.865 156.179 84.749C157.713 85.607 159.429 86.036 161.327 86.036C163.979 86.036 166.163 85.243 167.879 83.657C169.595 82.071 170.596 79.926 170.882 77.222H160.04V74.336H174.665V77.066C174.457 79.302 173.755 81.356 172.559 83.228C171.363 85.074 169.79 86.543 167.84 87.635C165.89 88.701 163.719 89.234 161.327 89.234C158.805 89.234 156.504 88.649 154.424 87.479C152.344 86.283 150.693 84.632 149.471 82.526C148.275 80.42 147.677 78.041 147.677 75.389C147.677 72.737 148.275 70.358 149.471 68.252C150.693 66.12 152.344 64.469 154.424 63.299C156.504 62.103 158.805 61.505 161.327 61.505C164.213 61.505 166.761 62.22 168.971 63.65C171.207 65.08 172.832 67.095 173.846 69.695H169.595ZM188.678 89.351C186.676 89.351 184.856 88.896 183.218 87.986C181.606 87.076 180.332 85.789 179.396 84.125C178.486 82.435 178.031 80.485 178.031 78.275C178.031 76.091 178.499 74.167 179.435 72.503C180.397 70.813 181.697 69.526 183.335 68.642C184.973 67.732 186.806 67.277 188.834 67.277C190.862 67.277 192.695 67.732 194.333 68.642C195.971 69.526 197.258 70.8 198.194 72.464C199.156 74.128 199.637 76.065 199.637 78.275C199.637 80.485 199.143 82.435 198.155 84.125C197.193 85.789 195.88 87.076 194.216 87.986C192.552 88.896 190.706 89.351 188.678 89.351ZM188.678 86.231C189.952 86.231 191.148 85.932 192.266 85.334C193.384 84.736 194.281 83.839 194.957 82.643C195.659 81.447 196.01 79.991 196.01 78.275C196.01 76.559 195.672 75.103 194.996 73.907C194.32 72.711 193.436 71.827 192.344 71.255C191.252 70.657 190.069 70.358 188.795 70.358C187.495 70.358 186.299 70.657 185.207 71.255C184.141 71.827 183.283 72.711 182.633 73.907C181.983 75.103 181.658 76.559 181.658 78.275C181.658 80.017 181.97 81.486 182.594 82.682C183.244 83.878 184.102 84.775 185.168 85.373C186.234 85.945 187.404 86.231 188.678 86.231ZM231.432 61.817V64.703H224.022V89H220.473V64.703H213.024V61.817H231.432ZM245.122 89.351C243.12 89.351 241.3 88.896 239.662 87.986C238.05 87.076 236.776 85.789 235.84 84.125C234.93 82.435 234.475 80.485 234.475 78.275C234.475 76.091 234.943 74.167 235.879 72.503C236.841 70.813 238.141 69.526 239.779 68.642C241.417 67.732 243.25 67.277 245.278 67.277C247.306 67.277 249.139 67.732 250.777 68.642C252.415 69.526 253.702 70.8 254.638 72.464C255.6 74.128 256.081 76.065 256.081 78.275C256.081 80.485 255.587 82.435 254.599 84.125C253.637 85.789 252.324 87.076 250.66 87.986C248.996 88.896 247.15 89.351 245.122 89.351ZM245.122 86.231C246.396 86.231 247.592 85.932 248.71 85.334C249.828 84.736 250.725 83.839 251.401 82.643C252.103 81.447 252.454 79.991 252.454 78.275C252.454 76.559 252.116 75.103 251.44 73.907C250.764 72.711 249.88 71.827 248.788 71.255C247.696 70.657 246.513 70.358 245.239 70.358C243.939 70.358 242.743 70.657 241.651 71.255C240.585 71.827 239.727 72.711 239.077 73.907C238.427 75.103 238.102 76.559 238.102 78.275C238.102 80.017 238.414 81.486 239.038 82.682C239.688 83.878 240.546 84.775 241.612 85.373C242.678 85.945 243.848 86.231 245.122 86.231ZM287.876 61.817V64.703H280.466V89H276.917V64.703H269.468V61.817H287.876ZM302.852 67.238C304.464 67.238 305.92 67.589 307.22 68.291C308.52 68.967 309.534 69.994 310.262 71.372C311.016 72.75 311.393 74.427 311.393 76.403V89H307.883V76.91C307.883 74.778 307.35 73.153 306.284 72.035C305.218 70.891 303.762 70.319 301.916 70.319C300.044 70.319 298.549 70.904 297.431 72.074C296.339 73.244 295.793 74.947 295.793 77.183V89H292.244V60.14H295.793V70.67C296.495 69.578 297.457 68.733 298.679 68.135C299.927 67.537 301.318 67.238 302.852 67.238ZM336.691 77.495C336.691 78.171 336.652 78.886 336.574 79.64H319.492C319.622 81.746 320.337 83.397 321.637 84.593C322.963 85.763 324.562 86.348 326.434 86.348C327.968 86.348 329.242 85.997 330.256 85.295C331.296 84.567 332.024 83.605 332.44 82.409H336.262C335.69 84.463 334.546 86.14 332.83 87.44C331.114 88.714 328.982 89.351 326.434 89.351C324.406 89.351 322.586 88.896 320.974 87.986C319.388 87.076 318.14 85.789 317.23 84.125C316.32 82.435 315.865 80.485 315.865 78.275C315.865 76.065 316.307 74.128 317.191 72.464C318.075 70.8 319.31 69.526 320.896 68.642C322.508 67.732 324.354 67.277 326.434 67.277C328.462 67.277 330.256 67.719 331.816 68.603C333.376 69.487 334.572 70.709 335.404 72.269C336.262 73.803 336.691 75.545 336.691 77.495ZM333.025 76.754C333.025 75.402 332.726 74.245 332.128 73.283C331.53 72.295 330.711 71.554 329.671 71.06C328.657 70.54 327.526 70.28 326.278 70.28C324.484 70.28 322.95 70.852 321.676 71.996C320.428 73.14 319.713 74.726 319.531 76.754H333.025ZM372.365 69.695C371.611 68.109 370.519 66.887 369.089 66.029C367.659 65.145 365.995 64.703 364.097 64.703C362.199 64.703 360.483 65.145 358.949 66.029C357.441 66.887 356.245 68.135 355.361 69.773C354.503 71.385 354.074 73.257 354.074 75.389C354.074 77.521 354.503 79.393 355.361 81.005C356.245 82.617 357.441 83.865 358.949 84.749C360.483 85.607 362.199 86.036 364.097 86.036C366.749 86.036 368.933 85.243 370.649 83.657C372.365 82.071 373.366 79.926 373.652 77.222H362.81V74.336H377.435V77.066C377.227 79.302 376.525 81.356 375.329 83.228C374.133 85.074 372.56 86.543 370.61 87.635C368.66 88.701 366.489 89.234 364.097 89.234C361.575 89.234 359.274 88.649 357.194 87.479C355.114 86.283 353.463 84.632 352.241 82.526C351.045 80.42 350.447 78.041 350.447 75.389C350.447 72.737 351.045 70.358 352.241 68.252C353.463 66.12 355.114 64.469 357.194 63.299C359.274 62.103 361.575 61.505 364.097 61.505C366.983 61.505 369.531 62.22 371.741 63.65C373.977 65.08 375.602 67.095 376.616 69.695H372.365ZM401.159 61.817L392.306 78.743V89H388.757V78.743L379.865 61.817H383.804L390.512 75.584L397.22 61.817H401.159ZM432.475 62.012V89H428.926V68.876L419.956 89H417.46L408.451 68.837V89H404.902V62.012H408.724L418.708 84.32L428.692 62.012H432.475Z" fill="#3B3B3B"/>
<g clip-path="url(#clip0_21_28)">
<path d="M102.138 77.1569L84.3685 56.021L81.6045 59.5967L102.138 84.3229L146.138 31.3383L142.874 27.6467L102.138 77.1569Z" fill="#0EB200"/>
</g>
<defs>
<filter id="filter0_bdd_21_28" x="-26" y="-30" width="557" height="211" filterUnits="userSpaceOnUse" color-interpolation-filters="sRGB">
<feFlood flood-opacity="0" result="BackgroundImageFix"/>
<feGaussianBlur in="BackgroundImageFix" stdDeviation="15"/>
<feComposite in2="SourceAlpha" operator="in" result="effect1_backgroundBlur_21_28"/>
<feColorMatrix in="SourceAlpha" type="matrix" values="0 0 0 0 0 0 0 0 0 0 0 0 0 0 0 0 0 0 127 0" result="hardAlpha"/>
<feOffset dx="10" dy="10"/>
<feGaussianBlur stdDeviation="5"/>
<feComposite in2="hardAlpha" operator="out"/>
<feColorMatrix type="matrix" values="0 0 0 0 0.880512 0 0 0 0 0.880512 0 0 0 0 0.880512 0 0 0 0.25 0"/>
<feBlend mode="normal" in2="effect1_backgroundBlur_21_28" result="effect2_dropShadow_21_28"/>
<feColorMatrix in="SourceAlpha" type="matrix" values="0 0 0 0 0 0 0 0 0 0 0 0 0 0 0 0 0 0 127 0" result="hardAlpha"/>
<feOffset dy="4"/>
<feGaussianBlur stdDeviation="2"/>
<feComposite in2="hardAlpha" operator="out"/>
<feColorMatrix type="matrix" values="0 0 0 0 0 0 0 0 0 0 0 0 0 0 0 0 0 0 0.25 0"/>
<feBlend mode="normal" in2="effect2_dropShadow_21_28" result="effect3_dropShadow_21_28"/>
<feBlend mode="normal" in="SourceGraphic" in2="effect3_dropShadow_21_28" result="shape"/>
</filter>
<clipPath id="clip0_21_28">
<rect width="88" height="56" fill="white" transform="translate(70 28)"/>
</clipPath>
</defs>
</svg>
