<svg width="384" height="153" viewBox="0 0 384 153" fill="none" xmlns="http://www.w3.org/2000/svg">
<path d="M52.224 79.992V90.84H34.368V147H20.928V90.84H3.072V79.992H52.224ZM47.0542 120.216C47.0542 114.84 48.1102 110.072 50.2222 105.912C52.3982 101.752 55.3102 98.552 58.9583 96.312C62.6702 94.072 66.7983 92.952 71.3423 92.952C75.3103 92.952 78.7663 93.752 81.7103 95.352C84.7183 96.952 87.1183 98.968 88.9103 101.4V93.816H102.446V147H88.9103V139.224C87.1823 141.72 84.7823 143.8 81.7103 145.464C78.7023 147.064 75.2143 147.864 71.2463 147.864C66.7663 147.864 62.6702 146.712 58.9583 144.408C55.3102 142.104 52.3982 138.872 50.2222 134.712C48.1102 130.488 47.0542 125.656 47.0542 120.216ZM88.9103 120.408C88.9103 117.144 88.2703 114.36 86.9903 112.056C85.7103 109.688 83.9823 107.896 81.8063 106.68C79.6303 105.4 77.2943 104.76 74.7983 104.76C72.3023 104.76 69.9983 105.368 67.8862 106.584C65.7743 107.8 64.0463 109.592 62.7023 111.96C61.4223 114.264 60.7823 117.016 60.7823 120.216C60.7823 123.416 61.4223 126.232 62.7023 128.664C64.0463 131.032 65.7743 132.856 67.8862 134.136C70.0623 135.416 72.3663 136.056 74.7983 136.056C77.2943 136.056 79.6303 135.448 81.8063 134.232C83.9823 132.952 85.7103 131.16 86.9903 128.856C88.2703 126.488 88.9103 123.672 88.9103 120.408ZM124.405 147.864C120.053 147.864 116.149 147.096 112.693 145.56C109.237 143.96 106.485 141.816 104.437 139.128C102.453 136.44 101.365 133.464 101.173 130.2H114.709C114.965 132.248 115.957 133.944 117.685 135.288C119.477 136.632 121.685 137.304 124.309 137.304C126.869 137.304 128.853 136.792 130.261 135.768C131.733 134.744 132.469 133.432 132.469 131.832C132.469 130.104 131.573 128.824 129.781 127.992C128.053 127.096 125.269 126.136 121.429 125.112C117.461 124.152 114.197 123.16 111.637 122.136C109.141 121.112 106.965 119.544 105.109 117.432C103.317 115.32 102.421 112.472 102.421 108.888C102.421 105.944 103.253 103.256 104.917 100.824C106.645 98.392 109.077 96.472 112.213 95.064C115.413 93.656 119.157 92.952 123.445 92.952C129.781 92.952 134.837 94.552 138.613 97.752C142.389 100.888 144.469 105.144 144.853 110.52H131.989C131.797 108.408 130.901 106.744 129.301 105.528C127.765 104.248 125.685 103.608 123.061 103.608C120.629 103.608 118.741 104.056 117.397 104.952C116.117 105.848 115.477 107.096 115.477 108.696C115.477 110.488 116.373 111.864 118.165 112.824C119.957 113.72 122.741 114.648 126.517 115.608C130.357 116.568 133.525 117.56 136.021 118.584C138.517 119.608 140.661 121.208 142.453 123.384C144.309 125.496 145.269 128.312 145.333 131.832C145.333 134.904 144.469 137.656 142.741 140.088C141.077 142.52 138.645 144.44 135.445 145.848C132.309 147.192 128.629 147.864 124.405 147.864ZM176.333 147L158.285 124.344V147H144.845V75.96H158.285V116.376L176.141 93.816H193.613L170.189 120.504L193.805 147H176.333ZM220.492 147.672C214.22 147.672 208.46 146.2 203.212 143.256C197.964 140.312 193.804 136.248 190.732 131.064C187.66 125.816 186.124 119.896 186.124 113.304C186.124 106.776 187.66 100.92 190.732 95.736C193.804 90.488 197.964 86.392 203.212 83.448C208.46 80.504 214.22 79.032 220.492 79.032C226.828 79.032 232.588 80.504 237.772 83.448C243.02 86.392 247.148 90.488 250.156 95.736C253.228 100.92 254.764 106.776 254.764 113.304C254.764 119.896 253.228 125.816 250.156 131.064C247.148 136.248 243.02 140.312 237.772 143.256C232.524 146.2 226.764 147.672 220.492 147.672ZM220.492 135.672C224.524 135.672 228.076 134.776 231.148 132.984C234.22 131.128 236.62 128.504 238.348 125.112C240.076 121.72 240.94 117.784 240.94 113.304C240.94 108.824 240.076 104.92 238.348 101.592C236.62 98.2 234.22 95.608 231.148 93.816C228.076 92.024 224.524 91.128 220.492 91.128C216.46 91.128 212.876 92.024 209.74 93.816C206.668 95.608 204.268 98.2 202.54 101.592C200.812 104.92 199.948 108.824 199.948 113.304C199.948 117.784 200.812 121.72 202.54 125.112C204.268 128.504 206.668 131.128 209.74 132.984C212.876 134.776 216.46 135.672 220.492 135.672ZM348.632 119.256C348.632 121.176 348.504 122.904 348.248 124.44H309.368C309.688 128.28 311.032 131.288 313.4 133.464C315.768 135.64 318.68 136.728 322.136 136.728C327.128 136.728 330.68 134.584 332.792 130.296H347.288C345.752 135.416 342.808 139.64 338.456 142.968C334.104 146.232 328.76 147.864 322.424 147.864C317.304 147.864 312.696 146.744 308.6 144.504C304.568 142.2 301.4 138.968 299.096 134.808C296.856 130.648 295.736 125.848 295.736 120.408C295.736 114.904 296.856 110.072 299.096 105.912C301.336 101.752 304.472 98.552 308.504 96.312C312.536 94.072 317.176 92.952 322.424 92.952C327.48 92.952 331.992 94.04 335.96 96.216C339.992 98.392 343.096 101.496 345.272 105.528C347.512 109.496 348.632 114.072 348.632 119.256ZM334.712 115.416C334.648 111.96 333.4 109.208 330.968 107.16C328.536 105.048 325.56 103.992 322.04 103.992C318.712 103.992 315.896 105.016 313.592 107.064C311.352 109.048 309.976 111.832 309.464 115.416H334.712ZM360.361 102.072C362.089 99.256 364.329 97.048 367.081 95.448C369.897 93.848 373.097 93.048 376.681 93.048V107.16H373.129C368.905 107.16 365.705 108.152 363.529 110.136C361.417 112.12 360.361 115.576 360.361 120.504V147H346.921V93.816H360.361V102.072Z" fill="#3B3B3B"/>
<path d="M275.419 134.616L288.859 93.816H303.163L283.483 147H267.163L247.579 93.816H261.979L275.419 134.616Z" fill="#FF5E62"/>
<path d="M288.5 94.5L284 109L296.5 111.5L303 94.5L333.5 3.5L321.5 0L288.5 94.5Z" fill="#FF5E62"/>
</svg>
