<svg width="74" height="73" viewBox="0 0 74 73" fill="none" xmlns="http://www.w3.org/2000/svg">
<path d="M2.67516 0L72.6752 31C73.8752 31.8 72.1752 32.6667 71.1752 33C66.0085 35.8333 55.1752 41.8 53.1752 43C51.1752 44.2 49.6752 43.5 49.1752 43C38.0085 33.1667 14.9752 13 12.1752 11C9.37516 9 10.3418 10.5 11.1752 11.5C20.6752 22.5 40.1752 45 42.1752 47C44.1752 49 44.3418 50.5 44.1752 51C40.1752 57.3333 31.9752 70.3 31.1752 71.5C30.3752 72.7 29.1752 72 28.6752 71.5C19.5085 49.3333 0.975159 4.5 0.175156 2.5C-0.624847 0.5 1.50849 0 2.67516 0Z" fill="black"/>
</svg>
